<?xml version="1.0" standalone="no"?>
<!DOCTYPE svg PUBLIC "-//W3C//DTD SVG 20010904//EN"
 "http://www.w3.org/TR/2001/REC-SVG-20010904/DTD/svg10.dtd">
<svg version="1.0" xmlns="http://www.w3.org/2000/svg"
 width="1280.000000pt" height="1280.000000pt" viewBox="0 0 1280.000000 1280.000000"
 preserveAspectRatio="xMidYMid meet">
<metadata>
Created by potrace 1.14, written by Peter Selinger 2001-2017
</metadata>
<g transform="translate(0.000000,1280.000000) scale(0.100000,-0.100000)"
fill="#000000" stroke="none">
<path d="M7977 12794 c-3 -3 1 -23 8 -45 8 -22 14 -43 15 -47 0 -9 11 -71 17
-97 11 -49 9 -183 -4 -220 -50 -149 -137 -233 -400 -389 -200 -118 -299 -192
-386 -286 -116 -126 -168 -246 -161 -375 4 -70 5 -72 29 -146 10 -31 26 -67
36 -80 l19 -24 0 45 c6 262 100 392 457 626 82 53 186 122 233 153 308 201
397 452 255 720 -43 79 -109 173 -118 165z"/>
<path d="M8391 12258 c49 -159 82 -351 82 -473 0 -130 -6 -168 -40 -255 -46
-114 -121 -215 -243 -323 -71 -64 -274 -202 -385 -262 -38 -21 -87 -49 -107
-62 -21 -13 -42 -23 -48 -23 -5 0 -10 -4 -10 -10 0 -5 -5 -10 -12 -10 -23 0
-262 -167 -373 -260 -103 -87 -235 -238 -302 -345 -25 -40 -95 -205 -88 -205
3 0 1 -10 -4 -23 -10 -26 -25 -140 -23 -177 7 -141 30 -227 97 -377 31 -66 40
-71 42 -20 5 109 17 214 32 277 7 25 14 56 17 70 11 53 86 192 142 262 76 95
188 199 332 307 131 99 376 263 518 346 374 220 594 461 662 725 28 107 22
268 -14 385 -47 150 -120 287 -234 438 -42 55 -54 60 -41 15z"/>
<path d="M9010 11617 c0 -7 14 -67 31 -133 17 -65 33 -130 35 -144 3 -14 7
-33 10 -42 3 -9 6 -25 8 -35 2 -10 11 -53 20 -95 9 -42 18 -94 21 -115 3 -21
7 -47 10 -58 22 -104 21 -450 -1 -487 -3 -4 -7 -21 -10 -36 -9 -52 -46 -157
-82 -232 -84 -174 -244 -363 -437 -519 -38 -31 -72 -58 -75 -61 -3 -3 -43 -33
-90 -66 -124 -88 -272 -179 -491 -302 -306 -173 -402 -230 -559 -335 -104 -69
-302 -212 -350 -253 -14 -12 -47 -41 -75 -64 -226 -191 -401 -409 -495 -617
l-29 -64 -53 6 c-189 21 -567 21 -758 0 -19 -2 -66 -7 -105 -10 -38 -4 -81 -8
-95 -10 -14 -2 -45 -7 -70 -10 -25 -3 -54 -8 -66 -10 -12 -3 -39 -7 -60 -10
-32 -5 -255 -47 -315 -60 -72 -15 -252 -61 -339 -87 -58 -17 -118 -34 -135
-38 -75 -20 -387 -149 -393 -162 -2 -5 -9 -8 -16 -8 -14 0 -207 -107 -285
-158 -226 -147 -382 -305 -429 -432 -19 -53 -23 -134 -8 -158 4 -7 -14 -67
-40 -134 -43 -113 -101 -282 -109 -318 -1 -8 -10 -40 -19 -71 -9 -31 -18 -65
-21 -75 -2 -11 -10 -46 -19 -79 -17 -67 -16 -61 -50 -240 -13 -71 -27 -159
-31 -195 -4 -36 -8 -72 -10 -81 -3 -16 -16 -167 -21 -239 -4 -73 -4 -390 1
-455 14 -204 20 -264 30 -315 2 -14 7 -45 10 -70 12 -91 52 -286 80 -385 44
-160 67 -232 104 -333 100 -273 253 -565 413 -791 155 -219 378 -462 559 -611
50 -41 96 -80 103 -85 20 -19 179 -131 241 -170 145 -92 302 -177 436 -235 52
-22 103 -45 114 -50 51 -23 95 -38 95 -32 0 7 -15 20 -245 203 -77 62 -165
133 -195 158 -30 25 -65 55 -78 66 -14 11 -37 31 -52 45 -15 14 -58 52 -95 85
-154 135 -413 406 -490 510 -16 22 -34 45 -40 50 -16 15 -124 170 -184 264
-77 121 -189 345 -250 500 -30 74 -54 140 -55 145 -2 6 -9 31 -16 56 -7 25
-15 50 -16 55 -1 6 -12 42 -23 80 -17 61 -44 180 -57 253 -11 61 -23 142 -28
182 -4 25 -8 55 -10 67 -4 20 -9 80 -22 258 -5 68 -4 480 1 530 2 22 7 90 10
150 4 61 9 118 11 129 2 10 6 44 9 75 12 116 25 211 45 331 5 30 11 71 14 90
3 19 17 98 32 176 l27 140 91 -62 c205 -139 449 -261 701 -350 71 -25 224 -72
260 -79 11 -3 49 -12 84 -21 36 -9 74 -18 85 -20 12 -2 44 -8 71 -14 57 -11
108 -20 145 -25 14 -2 39 -6 55 -9 17 -3 55 -8 85 -11 30 -3 66 -8 80 -10 98
-15 300 -29 605 -41 343 -15 1275 -7 1395 11 14 2 66 7 115 10 94 7 108 8 215
19 101 11 430 60 480 72 14 3 36 8 50 10 14 2 45 9 70 14 66 15 92 21 125 27
17 3 38 9 48 14 9 5 17 8 17 6 0 -3 53 11 118 29 64 19 124 36 132 39 156 42
470 177 619 264 28 17 56 31 61 31 17 0 137 -227 205 -390 42 -102 103 -297
120 -385 41 -211 48 -279 48 -475 1 -150 -6 -266 -18 -330 -3 -13 -7 -42 -10
-65 -23 -162 -100 -424 -182 -620 -47 -110 -146 -308 -189 -377 -13 -21 -24
-40 -24 -42 0 -9 -153 -239 -211 -318 -211 -288 -519 -619 -780 -838 -29 -25
-63 -54 -75 -66 -12 -12 -84 -69 -161 -128 -76 -59 -146 -114 -156 -122 -9 -8
-21 -14 -26 -14 -5 0 -11 -4 -13 -8 -1 -5 -25 -23 -53 -42 -27 -18 -52 -36
-55 -39 -3 -4 -43 -31 -90 -61 -47 -30 -87 -57 -90 -60 -3 -3 -16 -11 -30 -19
-14 -8 -63 -38 -110 -66 -90 -55 -139 -83 -258 -148 -80 -43 -91 -61 -19 -28
25 12 48 21 52 21 3 0 24 9 48 19 23 11 87 38 142 61 55 22 109 45 120 50 11
5 70 30 130 56 113 47 134 56 315 140 315 146 669 347 855 487 24 18 53 39 65
47 12 8 28 20 34 26 6 6 52 44 101 86 92 76 270 254 345 343 23 28 51 60 61
73 122 144 297 435 401 667 36 80 121 305 143 380 9 33 21 71 26 85 12 37 68
250 73 285 3 17 12 71 21 120 33 187 38 253 41 520 2 280 -15 466 -71 736 -13
63 -76 300 -95 354 -11 33 -20 60 -20 60 8 0 -118 327 -167 435 -56 126 -167
350 -172 350 -3 0 -7 -21 -8 -48 -4 -115 -22 -201 -53 -263 -52 -101 -181
-215 -385 -341 -126 -77 -125 -77 -74 -25 25 26 59 71 75 100 25 45 29 62 29
132 0 63 -5 90 -23 126 -64 132 -264 283 -514 389 -185 79 -521 183 -664 206
-22 3 -42 8 -45 10 -4 2 -53 13 -110 24 -108 20 -136 25 -204 35 -23 3 -50 7
-60 9 -11 2 -49 7 -85 11 -36 4 -74 9 -85 11 -19 2 -79 9 -175 19 -25 3 -88 8
-140 11 -105 7 -159 10 -177 13 -14 1 15 57 83 161 73 111 68 108 181 104 54
-2 136 -6 183 -9 47 -3 132 -8 190 -11 58 -2 134 -7 170 -9 299 -22 380 -25
380 -14 0 5 -8 9 -18 9 -10 0 -22 4 -28 9 -9 8 -152 58 -190 65 -10 3 -59 13
-109 24 -96 22 -126 27 -245 43 -41 5 -88 12 -105 14 -26 4 -91 9 -215 19 -23
2 -34 8 -32 17 3 13 56 66 138 140 81 73 345 269 362 269 5 0 17 9 27 20 10
11 24 20 31 20 7 0 14 4 16 8 2 5 73 52 158 105 85 53 160 100 165 105 8 6
106 66 193 117 120 71 470 288 534 331 515 351 796 712 884 1134 18 87 24 303
11 385 -32 200 -82 347 -184 544 -52 102 -201 342 -223 361 -3 3 -28 35 -55
73 -27 37 -50 67 -52 67 -2 0 -3 -6 -3 -13z m-2594 -3824 c-19 -64 -37 -145
-42 -200 l-7 -63 -36 -1 c-296 -6 -683 -46 -926 -94 -44 -9 -92 -18 -106 -20
-60 -9 -361 -90 -469 -127 -63 -21 -122 -40 -130 -43 -18 -4 -126 -49 -190
-77 -25 -11 -65 -29 -90 -40 -71 -31 -270 -142 -270 -150 0 -4 30 4 68 17 273
102 677 210 932 250 19 3 58 10 85 15 28 5 68 12 90 15 22 3 67 10 100 15 33
5 85 12 115 15 30 3 71 8 90 10 51 7 141 15 319 30 30 3 116 7 190 11 75 3
155 7 179 8 23 1 42 -1 43 -4 0 -3 2 -14 4 -25 2 -11 5 -42 8 -70 3 -27 11
-72 17 -100 6 -27 13 -59 16 -70 7 -34 56 -178 76 -225 28 -62 89 -183 98
-193 4 -4 8 21 9 55 3 100 17 245 36 383 11 74 53 238 64 245 5 3 27 4 48 3
21 -1 97 -5 168 -8 72 -3 141 -7 155 -10 14 -2 59 -7 100 -10 41 -4 86 -8 100
-10 14 -2 48 -6 75 -10 49 -6 145 -21 195 -31 14 -3 41 -7 60 -10 28 -3 286
-65 325 -78 6 -1 30 -8 54 -15 24 -7 51 -16 60 -21 9 -4 54 -22 101 -40 180
-69 382 -192 486 -296 205 -206 140 -408 -184 -569 -91 -45 -296 -119 -362
-130 -19 -3 -42 -8 -50 -10 -19 -5 -85 -14 -146 -20 -27 -3 -60 -7 -74 -10
-14 -3 -52 -8 -85 -10 -33 -2 -85 -7 -115 -10 -30 -3 -80 -8 -110 -10 -30 -2
-93 -7 -140 -10 -432 -32 -1283 -37 -1645 -10 -22 2 -78 6 -125 9 -115 8 -182
14 -320 32 -19 2 -54 6 -77 9 -154 19 -163 20 -343 55 -234 45 -360 80 -555
152 -472 175 -717 443 -635 694 20 59 52 105 111 158 57 51 284 206 334 227
17 7 41 20 55 29 14 9 79 40 145 69 66 29 129 57 140 61 77 34 418 134 525
154 14 2 59 11 100 19 67 14 116 23 175 32 11 2 43 6 70 10 28 3 64 8 80 10
49 7 117 14 175 19 30 3 80 8 110 10 30 3 111 8 180 12 69 3 126 7 127 7 1 1
101 3 223 5 210 3 221 2 216 -15z"/>
<path d="M10447 6150 c-101 -26 -176 -67 -240 -131 -126 -126 -152 -287 -73
-453 29 -60 120 -161 201 -221 267 -200 401 -376 483 -635 43 -134 28 -359
-35 -535 -116 -321 -394 -686 -824 -1079 -35 -32 -82 -75 -104 -95 -48 -44
-257 -226 -340 -296 -69 -59 -134 -115 -153 -133 -25 -23 7 -12 67 23 32 19
62 35 65 35 3 0 31 15 63 34 32 18 88 49 124 68 98 53 398 227 446 259 23 16
44 29 47 29 9 0 251 163 254 171 2 5 8 9 13 9 6 0 15 5 22 10 7 6 64 50 128
98 219 165 426 355 594 546 33 37 65 73 70 79 39 44 151 195 194 262 28 44 54
85 58 90 5 6 18 30 31 55 12 25 27 52 32 60 33 56 133 327 128 348 -1 4 1 21
5 37 26 120 27 256 3 410 -2 17 -18 73 -35 125 -97 301 -372 589 -721 756
-101 48 -108 51 -160 63 -25 5 -58 13 -75 17 -62 15 -200 11 -268 -6z"/>
<path d="M2375 2771 c-11 -5 -54 -19 -95 -31 -133 -40 -342 -121 -475 -184
-441 -211 -724 -486 -790 -770 -30 -126 -4 -297 61 -414 131 -234 437 -465
839 -632 44 -18 95 -39 113 -47 18 -8 59 -24 90 -35 162 -57 288 -100 297
-102 6 -1 24 -7 40 -13 58 -23 551 -160 645 -179 14 -3 43 -10 65 -15 48 -11
59 -14 150 -34 39 -9 81 -18 95 -21 20 -3 118 -24 140 -29 3 0 28 -5 55 -10
28 -4 55 -9 60 -11 15 -4 423 -72 470 -79 23 -3 51 -7 62 -9 31 -6 134 -18
161 -19 12 -1 22 -3 22 -6 0 -4 15 -6 33 -7 28 0 73 -5 192 -19 38 -5 111 -13
173 -20 26 -3 74 -8 107 -10 33 -3 74 -7 90 -9 17 -3 71 -8 120 -11 50 -4 110
-8 135 -10 41 -4 122 -9 300 -20 446 -27 1361 -27 1830 0 159 9 259 16 305 20
28 2 86 7 130 10 44 3 94 8 110 10 26 4 80 9 220 20 17 1 50 5 75 8 25 3 72 9
105 13 33 3 67 8 75 9 8 2 40 6 70 10 30 3 66 8 80 10 14 2 45 6 70 10 25 3
56 8 70 10 14 2 45 7 70 10 25 3 113 18 195 31 83 14 164 28 180 31 33 5 364
73 380 77 6 2 28 6 50 11 39 7 112 25 278 65 296 74 792 234 971 314 17 8 74
33 126 56 275 121 507 269 659 420 154 153 222 286 227 446 5 150 -41 278
-154 429 -58 77 -142 167 -142 152 0 -4 13 -31 29 -60 99 -175 124 -359 71
-517 -104 -312 -498 -582 -1160 -795 -41 -13 -95 -29 -120 -36 -25 -7 -49 -14
-55 -15 -114 -33 -340 -90 -450 -114 -135 -29 -136 -29 -170 -36 -16 -3 -48
-9 -70 -14 -22 -5 -56 -12 -75 -15 -19 -3 -66 -12 -105 -20 -60 -12 -336 -63
-431 -79 -17 -3 -46 -8 -65 -10 -19 -3 -46 -7 -59 -10 -14 -3 -45 -8 -70 -11
-25 -3 -56 -7 -70 -10 -30 -6 -86 -14 -136 -20 -22 -3 -50 -7 -64 -10 -37 -7
-110 -16 -150 -20 -19 -2 -71 -8 -115 -14 -44 -6 -102 -13 -130 -16 -27 -3
-68 -7 -90 -10 -94 -11 -241 -26 -300 -30 -27 -2 -77 -6 -110 -9 -337 -30
-760 -48 -1120 -49 -198 0 -653 11 -740 18 -27 2 -99 6 -160 10 -60 4 -127 8
-149 11 -21 2 -70 6 -110 9 -39 3 -91 7 -116 10 -125 12 -159 16 -205 21 -27
3 -61 7 -75 9 -14 2 -46 6 -72 10 -27 3 -69 7 -95 10 -27 4 -61 8 -78 11 -16
3 -41 7 -55 9 -79 10 -133 19 -300 47 -102 17 -196 32 -210 34 -14 2 -59 10
-100 19 -41 8 -86 17 -100 20 -40 8 -73 14 -100 20 -14 3 -34 7 -45 9 -11 2
-92 21 -180 41 -88 20 -167 38 -175 40 -8 1 -35 8 -60 15 -25 7 -56 14 -70 17
-14 2 -59 13 -100 24 -41 11 -97 26 -125 34 -81 21 -308 85 -335 94 -27 9 -41
13 -200 61 -58 17 -114 35 -125 40 -11 5 -58 21 -105 35 -359 114 -685 302
-835 483 -56 68 -117 174 -130 227 -4 17 -9 39 -12 50 -12 51 -8 150 8 215 36
140 93 233 226 367 181 182 484 355 786 449 45 14 87 27 92 29 6 2 -3 3 -20 4
-16 0 -39 -4 -50 -8z"/>
</g>
</svg>
